<?xml version="1.0" encoding="UTF-8"?>
<svg width="75px" height="94px" viewBox="0 0 75 94" version="1.1" xmlns="http://www.w3.org/2000/svg" xmlns:xlink="http://www.w3.org/1999/xlink">
    <!-- Generator: Sketch 50.2 (55047) - http://www.bohemiancoding.com/sketch -->
    <title>logo</title>
    <desc>Created with Sketch.</desc>
    <defs></defs>
    <g id="logo" stroke="none" stroke-width="1" fill="none" fill-rule="evenodd">
        <g id="logo-2" transform="translate(7.000000, 7.000000)">
            <path d="M37.0746429,8.04022989 C37.0746429,4.13793103 34.1228571,1 30.5378571,1 C26.9260714,1 24,4.13793103 24,8.04022989 C24.0010714,11.9011494 26.9260714,15.0390805 30.5378571,15.0390805 C34.1228571,15.0390805 37.0746429,11.9011494 37.0746429,8.04022989 Z" id="Shape" fill-opacity="0.987149004" fill="#646464" fill-rule="nonzero"></path>
            <path d="M19.3625,17 C14.7296429,17 11,20.3315922 11,24.470672 L11,38.2280772 C11,41.6509588 16.1525,41.6509588 16.1525,38.2280772 L16.1525,24.9478237 L21.4989286,24.9478237 L21.4989286,41.6848394 C24.23,42.2645741 27.0253571,42.6965517 29.9771429,42.6965517 C32.9021429,42.6965517 35.6717857,42.2645741 38.3910714,41.7074265 L38.3910714,24.9478237 L43.6989286,24.9478237 L43.6989286,38.2280772 C43.6989286,41.6735459 48.8514286,41.6735459 48.8514286,38.2280772 L48.8514286,24.5497267 C48.8503571,20.7635698 45.4592857,17 40.3582143,17 L19.3625,17 Z" id="Shape" fill-opacity="0.987149004" fill="#646464" fill-rule="nonzero"></path>
            <g id="Group-2" stroke-width="1" fill-rule="evenodd" transform="translate(0.000000, 49.000000)" fill="#F56F23">
                <path d="M48.4625,0.0988148148 C43.328125,3.93725926 37.0796875,6.19125926 30.378125,6.19125926 C23.7148438,6.19125926 17.540625,3.96877778 12.3882813,0.201888889 L8.3484375,6.74751852 C14.634375,11.3994815 22.2234375,14.0955926 30.378125,14.0955926 C38.590625,14.0955926 46.2164062,11.3688148 52.521875,6.68618519 L48.4625,0.0988148148 Z" id="Shape" fill-rule="nonzero"></path>
                <path d="M56.1835937,13.6006667 C48.840625,19.0559259 39.9679687,22.2256667 30.4164062,22.2256667 C20.9015625,22.2256667 12.0671875,19.0857407 4.74296875,13.6935185 L0.66484375,20.1054074 C9.14140625,26.3827037 19.3921875,30.0465185 30.4164062,30.0465185 C41.459375,30.0465185 51.7101562,26.3622593 60.2242187,20.084963 L56.1835937,13.6006667 Z" id="Shape" fill-rule="nonzero"></path>
            </g>
        </g>
    </g>
</svg>